<?xml version="1.0" encoding="utf-8"?>
<!-- Generator: Adobe Illustrator 16.0.0, SVG Export Plug-In . SVG Version: 6.00 Build 0)  -->
<!DOCTYPE svg PUBLIC "-//W3C//DTD SVG 1.1//EN" "http://www.w3.org/Graphics/SVG/1.1/DTD/svg11.dtd">
<svg version="1.1" xmlns="http://www.w3.org/2000/svg" xmlns:xlink="http://www.w3.org/1999/xlink" x="0px" y="0px" width="2000px"
	 height="800px" viewBox="0 0 2000 800" style="enable-background:new 0 0 2000 800;" xml:space="preserve">
<style type="text/css">
<![CDATA[
	.st0{fill-rule:evenodd;clip-rule:evenodd;fill:none;}
	.st1{fill-rule:evenodd;clip-rule:evenodd;fill:#DEA73D;}
	.st2{fill-rule:evenodd;clip-rule:evenodd;}
	.st3{fill-rule:evenodd;clip-rule:evenodd;fill:#205B0C;}
]]>
</style>
<g id="BACKGROUND">
	<rect id="BACKGROUND_1_" class="st0" width="2000" height="800"/>
</g>
<g id="LAW_FIRM">
	<path id="LAW_FIRM_1_" class="st2" d="M743.3,734.4c0,2.4,0.1,4.3,0.3,6c0.2,1.6,0.6,2.8,1.3,3.6c0.2,0.3,0.6,0.6,1,0.8
		c0.4,0.3,1,0.5,1.7,0.7c0.7,0.2,1.7,0.3,2.8,0.4c1.2,0.1,2.7,0.1,4.6,0.1c2.6,0,4.7-0.1,6.3-0.2c1.6-0.2,2.9-0.6,4-1.2
		c1.1-0.7,2.1-1.6,2.9-3c0.8-1.3,1.8-3.2,2.8-5.6c0.5-0.2,1-0.3,1.6-0.2s1,0.4,1.3,0.7c-0.2,1-0.4,2.1-0.8,3.4
		c-0.3,1.3-0.7,2.6-1.1,3.9c-0.4,1.3-0.7,2.5-1.1,3.6c-0.4,1.1-0.7,2-0.9,2.6c-1-0.1-2.2-0.1-3.7-0.1c-1.5,0-3.2,0-5.1,0
		c-1.9-0.1-3.9-0.1-6.2-0.1c-2.3,0-4.8,0-7.4,0H738c-2.4,0-4.7,0-6.9,0c-2.3,0-4.4,0.1-6.4,0.2c-0.4-0.2-0.6-0.6-0.7-1.3
		c-0.1-0.7,0.1-1.2,0.5-1.4l2.8-0.5c1.1-0.1,2-0.3,2.7-0.5c0.7-0.2,1.2-0.7,1.6-1.3c0.4-0.7,0.6-1.7,0.7-3c0.1-1.3,0.2-3.2,0.2-5.6
		v-34.6c0-2.4-0.1-4.3-0.2-5.6c-0.1-1.3-0.4-2.3-0.7-3c-0.4-0.7-0.9-1.1-1.6-1.3c-0.7-0.2-1.6-0.4-2.7-0.6l-2.6-0.4
		c-0.3-0.3-0.5-0.7-0.5-1.4c0-0.7,0.2-1.1,0.7-1.3c2.4,0.1,4.6,0.2,6.7,0.2c2.1,0,4.3,0,6.4,0c4.2,0,8.3-0.1,12.4-0.3
		c0.4,0.2,0.7,0.6,0.7,1.3c0,0.7-0.1,1.1-0.5,1.4l-2,0.4c-1.1,0.2-2,0.4-2.7,0.6c-0.7,0.2-1.2,0.7-1.6,1.3c-0.4,0.7-0.6,1.7-0.7,3
		c-0.1,1.3-0.2,3.2-0.2,5.6V734.4L743.3,734.4z M823.1,722.8c1.3,0,2.1-0.1,2.4-0.4c0.3-0.2,0.2-0.9-0.1-2.1l-3.9-11.2
		c-0.8-2.5-1.4-4.3-1.7-5.3c-0.3-1.1-0.6-1.7-0.9-2.1h-0.2c-0.2,0.3-0.5,1.1-0.9,2.3c-0.4,1.2-1,2.9-1.9,5.1l-3.9,10.9
		c-0.5,1.4-0.7,2.2-0.5,2.4c0.2,0.2,0.8,0.3,2,0.3H823.1L823.1,722.8z M811.9,727c-0.6,0-1.1,0-1.4,0c-0.3,0-0.6,0.1-0.7,0.3
		c-0.2,0.2-0.4,0.4-0.5,0.7s-0.3,0.8-0.5,1.4l-3.8,11.2c-0.5,1.4-0.8,2.4-1,3.2c-0.2,0.8-0.2,1.4,0,1.8c0.1,0.4,0.4,0.7,0.9,0.8
		c0.5,0.2,1.2,0.3,2,0.4l2.7,0.5c0.3,0.3,0.4,0.8,0.4,1.4c0,0.7-0.2,1.1-0.6,1.3c-1.5-0.1-3-0.2-4.7-0.2c-1.5,0-3.3,0-5.2-0.1
		c-2.9,0-6,0.1-9.2,0.3c-0.3-0.2-0.5-0.7-0.5-1.2c0-0.6,0.1-1.1,0.4-1.5l2.8-0.5c1.4-0.2,2.4-0.6,3.1-1.1c0.7-0.6,1.4-1.6,2-3.2
		c0.6-1.2,1.2-2.8,2-4.7c0.7-1.9,1.6-4.1,2.6-6.7l12.8-33.2c0.6-1.5,1.1-2.8,1.4-3.9c0.3-1.1,0.5-2.1,0.3-2.9c0.8-0.2,1.6-0.5,2.4-1
		c0.8-0.5,1.5-1,2.1-1.5c0.6-0.5,1.1-1,1.4-1.4c0.4-0.4,0.6-0.6,0.6-0.6c0.7,0,1.2,0.3,1.6,0.7c0.7,2.1,1.4,4.2,2.1,6.4
		c0.7,2.1,1.3,4.3,2.1,6.4l13.4,39c0.6,1.5,1,2.8,1.4,3.7c0.4,0.9,0.8,1.7,1.3,2.2c0.5,0.5,1.1,0.9,1.8,1.2c0.7,0.2,1.7,0.5,2.8,0.6
		l1.4,0.3c0.4,0.3,0.6,0.8,0.6,1.4c0,0.6-0.2,1.1-0.5,1.3c-1.9-0.1-3.8-0.2-5.7-0.2c-1.9,0-4,0-6.4,0c-2,0-4,0-6,0.1
		c-2,0.1-3.8,0.1-5.4,0.2c-0.4-0.2-0.6-0.7-0.7-1.3c-0.1-0.6,0.1-1.1,0.4-1.4l2.1-0.3c1.7-0.2,2.7-0.6,2.9-1.1
		c0.3-0.6,0.1-1.8-0.5-3.8l-4.4-12.7c-0.2-0.6-0.5-1.1-0.6-1.4s-0.4-0.6-0.7-0.7c-0.2-0.2-0.6-0.2-1-0.3c-0.4,0-0.9,0-1.5,0H811.9
		L811.9,727z M951.2,691.1c-1.1,0.2-2,0.5-2.7,0.9c-0.8,0.4-1.5,1-2.1,1.8c-0.7,0.8-1.3,1.8-2,3.1c-0.6,1.2-1.4,2.8-2.3,4.8
		c-3.5,7.9-6.8,15.1-9.9,21.8c-3,6.6-5.9,13.2-8.5,19.8c-0.7,1.7-1.2,3.2-1.7,4.5c-0.4,1.3-0.9,2.4-1.3,3.2
		c-0.4,0.2-0.9,0.4-1.6,0.4c-0.8,0-1.4-0.1-1.7-0.4c-0.5-1.4-1.2-3.2-2.1-5.3c-0.9-2.1-1.9-4.4-3-6.8c-1.1-2.4-2.2-4.8-3.4-7.2
		c-1.1-2.4-2.2-4.6-3.1-6.6c-2.1,4.3-4.2,8.6-6.1,12.8c-2,4.3-3.9,8.6-5.7,13c-0.4,0.2-0.9,0.4-1.6,0.4c-0.8,0-1.4-0.1-1.7-0.4
		c-0.7-2.1-1.7-4.4-2.8-6.9c-1.1-2.5-2.4-5.2-3.7-8l-18-38.1c-0.5-1.1-0.9-1.9-1.4-2.7c-0.4-0.7-0.8-1.3-1.3-1.8
		c-0.5-0.5-1-0.9-1.7-1.3c-0.6-0.3-1.4-0.6-2.4-0.9l-2.6-0.7c-0.3-0.3-0.4-0.8-0.4-1.3c0-0.6,0.3-1,0.7-1.3
		c3.4,0.2,7.1,0.3,11.3,0.3c1.7,0,3.4,0,5.3,0c1.8,0,3.9-0.1,6.1-0.2c0.4,0.2,0.6,0.7,0.7,1.3c0.1,0.6-0.1,1-0.4,1.3l-2.3,0.6
		c-0.6,0.1-1.1,0.3-1.5,0.5c-0.4,0.2-0.6,0.5-0.6,1s0.2,1.1,0.5,2.1c0.3,1,0.9,2.3,1.7,4.1l11.1,24c1.6,3.5,3,6.5,4.1,8.8
		c1.1,2.3,1.9,3.9,2.4,4.6c1-1.9,2-3.9,3-6.1c1-2.2,2.1-4.5,3.3-6.9c0.3-0.7,0.6-1.4,0.9-2c0.3-0.7,0.4-1.2,0.4-1.5
		c0-0.2-0.1-0.6-0.2-1.1c-0.2-0.5-0.4-1.1-0.6-1.7l-9.8-20.7c-0.9-1.9-1.8-3.1-2.5-3.8c-0.7-0.7-1.7-1.1-2.9-1.4l-2.7-0.6
		c-0.3-0.3-0.5-0.8-0.4-1.3c0-0.6,0.3-1,0.7-1.3c1.9,0.1,3.7,0.2,5.3,0.2c1.6,0,3.2,0,4.8,0c3.7,0,7.4-0.1,11.1-0.3
		c0.4,0.2,0.6,0.6,0.6,1.2c0,0.6-0.1,1.1-0.4,1.4l-2.5,0.6c-1.1,0.3-1.6,0.7-1.6,1.3c0,0.3,0.1,0.7,0.2,1.2c0.1,0.5,0.3,1.1,0.6,1.9
		c1.1,2.4,2.1,4.7,3.2,7c1.1,2.3,2.1,4.5,3.2,6.6c0.8-1.6,1.6-3.3,2.3-4.9c0.8-1.7,1.5-3.4,2.2-5.1c0.7-1.6,1.2-3,1.5-4.1
		c0.3-1.1,0.5-1.9,0.5-2.3c0-0.7-0.6-1.1-1.9-1.4l-2.6-0.7c-0.3-0.4-0.4-0.8-0.4-1.4c0.1-0.6,0.3-1,0.7-1.2c1.2,0.1,2.5,0.2,3.9,0.2
		c1.4,0,3,0,4.8,0c1.6,0,3.1,0,4.3,0c1.3,0,2.7-0.1,4.1-0.2c0.5,0.2,0.7,0.7,0.7,1.3c0,0.6-0.2,1.1-0.6,1.4l-2.3,0.5
		c-0.9,0.2-1.6,0.4-2.2,0.7c-0.6,0.3-1.2,0.7-1.7,1.2c-0.5,0.5-1.1,1.2-1.6,2c-0.5,0.9-1.2,2-1.9,3.4c-1.1,1.9-2.1,4-3.2,6.3
		c-1.1,2.3-2.2,4.6-3.2,6.7c-0.2,0.5-0.5,1-0.7,1.6c-0.2,0.6-0.3,0.9-0.3,1c0,0.3,0.3,1.1,0.7,2.2l4,8.7c0.5,1.1,1,2.2,1.5,3.4
		c0.5,1.2,1,2.3,1.5,3.4c0.5,1.1,0.9,2,1.3,2.9c0.4,0.9,0.7,1.5,0.9,1.9c2.4-5.6,4.8-11.4,7.3-17.3c2.5-6,5-11.9,7.5-17.9
		c0.8-1.9,1.5-3.7,2-5.3c0.6-1.6,0.8-2.7,0.8-3.4c0-0.3-0.3-0.6-1-0.8c-0.7-0.2-1.4-0.4-2.1-0.6l-1.6-0.5c-0.4-0.3-0.7-0.7-0.7-1.3
		c0-0.6,0.2-1.1,0.7-1.3c1.7,0.1,3.4,0.2,4.8,0.2c1.5,0,3,0,4.7,0c3,0,6-0.1,8.9-0.3c0.4,0.2,0.6,0.6,0.7,1.2c0.1,0.5-0.1,1-0.4,1.4
		L951.2,691.1L951.2,691.1z M1030.5,688.3c3,0,5.7,0,8.1,0c2.4,0,4.1-0.1,5.1-0.2c0,0.5,0,1.3,0,2.3c0,1.1,0,2.2,0,3.5
		c0,1.2,0,2.5,0,3.9c0,1.3,0.1,2.6,0.1,3.7c-0.2,0.4-0.6,0.6-1.3,0.7c-0.7,0.1-1.2,0-1.7-0.3c-0.5-2.7-1.2-4.8-2-6.2s-2.2-2.3-4-2.8
		c-1.2-0.3-2.5-0.5-3.7-0.6c-1.2-0.1-2.6-0.1-4.1-0.1h-4.7c-1,0-1.8,0-2.3,0.1c-0.5,0.1-0.9,0.3-1.2,0.6c-0.3,0.4-0.4,0.9-0.4,1.6
		c0,0.7,0,1.7,0,3v16.7c0,1.2,0.1,1.9,0.3,2.1c0.2,0.3,0.9,0.4,1.9,0.4h5.5c2.1,0,3.7,0,4.9-0.1c1.2-0.1,2.2-0.2,3-0.5
		c0.7-0.3,1.3-0.7,1.7-1.2c0.4-0.5,0.7-1.3,0.8-2.3l0.7-3.2c0.3-0.3,0.8-0.5,1.4-0.5c0.7,0,1.1,0.2,1.4,0.6
		c-0.1,1.2-0.1,2.7-0.2,4.3c-0.1,1.6-0.1,3.3-0.1,5c0,1.7,0,3.4,0.1,5.1c0.1,1.7,0.1,3.2,0.2,4.6c-0.3,0.4-0.7,0.6-1.4,0.6
		c-0.6,0-1.1-0.2-1.4-0.5l-0.7-3.6c-0.2-1-0.5-1.7-0.8-2.3c-0.4-0.5-0.9-0.9-1.7-1.2c-0.7-0.3-1.7-0.5-3-0.5
		c-1.2-0.1-2.9-0.1-4.9-0.1h-5.5c-1.1,0-1.7,0.1-1.9,0.4c-0.2,0.3-0.3,1-0.3,2.1v13c0,2.5,0.1,4.4,0.2,5.8c0.1,1.4,0.4,2.4,0.7,3.1
		c0.4,0.7,0.9,1.1,1.6,1.3c0.7,0.2,1.6,0.3,2.7,0.4l3.9,0.5c0.3,0.3,0.5,0.8,0.4,1.4s-0.2,1.1-0.6,1.3c-3-0.1-5.6-0.2-7.8-0.2
		c-2.2,0-4.4,0-6.4,0c-4.1,0-8.3,0.1-12.6,0.3c-0.4-0.2-0.6-0.6-0.6-1.3s0.1-1.1,0.4-1.4l2.1-0.3c1.1-0.1,2-0.3,2.7-0.5
		c0.7-0.2,1.2-0.7,1.6-1.4c0.4-0.7,0.6-1.7,0.7-3.1c0.1-1.4,0.2-3.3,0.2-5.8v-34.6c0-2.5-0.1-4.4-0.2-5.8c-0.1-1.4-0.4-2.4-0.7-3.1
		c-0.4-0.7-0.9-1.1-1.6-1.4c-0.7-0.2-1.6-0.4-2.7-0.6l-1.2-0.2c-0.3-0.3-0.4-0.8-0.4-1.4c0-0.7,0.2-1.1,0.6-1.3
		c1.6,0.1,3.4,0.2,5.4,0.2c2,0,4.1,0,6.1,0H1030.5L1030.5,688.3z M1085.8,736.4c0,2.5,0.1,4.4,0.2,5.8c0.1,1.4,0.4,2.4,0.7,3.1
		c0.4,0.7,0.9,1.1,1.6,1.4c0.7,0.2,1.6,0.4,2.7,0.5l2,0.3c0.3,0.3,0.4,0.8,0.4,1.4c0,0.7-0.2,1.1-0.6,1.3c-4.1-0.2-8.2-0.3-12.4-0.3
		c-2.1,0-4.1,0-6.3,0c-2.1,0-4.2,0.1-6.3,0.2c-0.4-0.2-0.6-0.6-0.6-1.3c0-0.7,0.1-1.1,0.4-1.4l2.1-0.3c1.1-0.1,2-0.3,2.7-0.5
		c0.7-0.2,1.2-0.7,1.6-1.4c0.4-0.7,0.6-1.7,0.7-3.1c0.1-1.4,0.2-3.3,0.2-5.8v-34.6c0-2.5-0.1-4.4-0.2-5.8c-0.1-1.4-0.4-2.4-0.7-3.1
		c-0.4-0.7-0.9-1.1-1.6-1.4c-0.7-0.2-1.6-0.4-2.7-0.5l-2.1-0.3c-0.3-0.3-0.5-0.8-0.4-1.4c0-0.7,0.2-1.1,0.6-1.3
		c4.1,0.2,8.3,0.3,12.6,0.3c4.2,0,8.3-0.1,12.4-0.3c0.4,0.2,0.6,0.6,0.6,1.3c0,0.7-0.1,1.1-0.4,1.4l-2,0.3c-1.1,0.1-2,0.3-2.7,0.5
		c-0.7,0.2-1.2,0.7-1.6,1.4c-0.4,0.7-0.6,1.7-0.7,3.1c-0.1,1.4-0.2,3.3-0.2,5.8V736.4L1085.8,736.4z M1136.6,715.7
		c0,0.7,0,1.3,0,1.8c0,0.4,0.2,0.7,0.5,0.9c0.3,0.2,0.7,0.3,1.4,0.4c0.6,0.1,1.5,0.1,2.6,0.1c4.6,0,8-1.1,10.1-3.3
		c2.1-2.2,3.2-5.5,3.2-10c0-1.9-0.3-3.6-0.9-5.3c-0.6-1.6-1.4-3.1-2.5-4.4c-1.1-1.3-2.4-2.3-4-3c-1.6-0.7-3.4-1.1-5.4-1.1
		c-1.2,0-2.2,0-2.8,0.1c-0.7,0.1-1.1,0.2-1.4,0.6c-0.3,0.3-0.5,0.8-0.6,1.4c-0.1,0.6-0.1,1.5-0.1,2.5V715.7L1136.6,715.7z
		 M1125.8,702.3c0-2.2,0-4-0.1-5.4c-0.1-1.3-0.2-2.4-0.5-3.1c-0.3-0.7-0.7-1.2-1.3-1.5c-0.6-0.3-1.4-0.5-2.6-0.6l-2.4-0.3
		c-0.3-0.3-0.5-0.7-0.5-1.3c0-0.6,0.2-1.1,0.6-1.3c3-0.3,6.3-0.5,10.1-0.7c3.7-0.1,7.5-0.2,11.4-0.2c3.7,0,7,0.2,10.1,0.8
		c3,0.5,5.6,1.3,7.6,2.4c2.4,1.2,4.3,3,5.9,5.2c1.5,2.2,2.3,5,2.3,8.4c0,2.2-0.4,4.1-1.1,5.7c-0.8,1.6-1.7,3-2.8,4.2
		c-1.1,1.2-2.3,2.2-3.6,3c-1.3,0.8-2.5,1.4-3.6,1.9c-0.3,0.1-0.4,0.3-0.4,0.7c0.1,0.3,0.2,0.6,0.4,0.9c3.7,6.3,6.9,11.5,9.4,15.5
		c2.5,4,4.9,6.9,7.1,8.7c1.3,1.1,2.6,1.9,3.8,2.2c1.2,0.4,2.1,0.6,2.7,0.7c0.2,0.2,0.4,0.5,0.4,0.9c0,0.4-0.1,0.7-0.2,0.9
		c-0.6,0.1-1.3,0.2-2.3,0.4c-1,0.1-2.2,0.2-3.9,0.2c-2.2,0-4.2-0.2-6-0.7c-1.8-0.5-3.4-1.2-4.9-2.2c-1.5-1-3-2.3-4.3-3.8
		c-1.4-1.6-2.8-3.4-4.2-5.6c-1.2-2-2.5-4.1-3.8-6.5c-1.3-2.3-2.5-4.4-3.6-6.2c-0.9-1.4-1.7-2.2-2.4-2.6c-0.7-0.4-1.9-0.6-3.4-0.6
		c-1.4,0-2.3,0.1-2.5,0.3c-0.3,0.2-0.4,0.8-0.4,1.8v11.9c0,2.5,0.1,4.4,0.2,5.8c0.1,1.4,0.4,2.4,0.7,3.1c0.4,0.7,0.9,1.1,1.6,1.4
		c0.7,0.2,1.6,0.4,2.7,0.5l2,0.3c0.3,0.3,0.5,0.8,0.4,1.4c0,0.7-0.2,1.1-0.6,1.3c-4.1-0.2-8.2-0.3-12.4-0.3c-4.1,0-8.3,0.1-12.6,0.3
		c-0.4-0.2-0.6-0.6-0.7-1.3s0.1-1.1,0.5-1.4l2.1-0.3c1.1-0.1,2-0.3,2.7-0.5c0.7-0.2,1.2-0.7,1.6-1.4c0.4-0.7,0.6-1.7,0.7-3.1
		c0.1-1.4,0.2-3.3,0.2-5.8V702.3L1125.8,702.3z M1275.1,747.4c0.5,0.2,0.7,0.6,0.7,1.4c-0.1,0.7-0.3,1.2-0.8,1.4
		c-2-0.1-3.9-0.2-5.8-0.2c-1.9,0-3.7,0-5.6,0c-4.2,0-8.3,0.1-12.4,0.3c-0.4-0.2-0.6-0.6-0.8-1.3c-0.1-0.7,0.1-1.1,0.6-1.4l2.5-0.5
		c0.9-0.1,1.7-0.3,2.2-0.5c0.5-0.2,0.9-0.6,1.2-1.1c0.3-0.5,0.5-1.3,0.5-2.2c0.1-0.9,0.1-2.2,0.1-3.8v-38.1h-0.2
		c-1.2,2.6-2.3,4.7-3.1,6.3c-0.8,1.7-1.7,3.4-2.5,5.3l-8,16.4c-0.8,1.6-1.7,3.4-2.6,5.4c-0.9,2-1.8,4-2.7,6c-0.9,2-1.7,3.8-2.4,5.5
		c-0.7,1.7-1.3,3.2-1.8,4.3c-0.2,0.2-0.6,0.3-1.1,0.3c-0.6,0-1-0.1-1.3-0.3c-0.4-1.2-0.9-2.7-1.5-4.4c-0.7-1.7-1.4-3.4-2.1-5.2
		s-1.5-3.5-2.2-5.1c-0.7-1.6-1.3-3-1.9-4.2l-8.3-17.9c-0.4-1-0.9-2.1-1.4-3.2c-0.5-1.1-1-2.3-1.5-3.5c-0.5-1.2-1-2.3-1.4-3.3
		c-0.4-1-0.8-1.9-1-2.6h-0.2c-0.1,1.1-0.1,2.4-0.1,3.8c0,1.4-0.1,2.9-0.1,4.3c-0.1,1.4-0.1,2.8-0.1,4.1c0,1.3-0.1,2.5-0.1,3.5
		c-0.1,2.9-0.2,6.2-0.3,10.1c-0.1,3.8-0.1,7.7-0.1,11.5c0,1.6,0,2.8,0.1,3.8c0.1,1,0.2,1.8,0.5,2.4c0.2,0.6,0.7,1,1.2,1.3
		c0.6,0.3,1.3,0.6,2.3,0.7l3.1,0.6c0.3,0.3,0.5,0.8,0.5,1.5c0,0.6-0.2,1-0.6,1.2c-1.7-0.1-3.4-0.2-4.9-0.2c-1.5,0-3.1,0-4.9,0
		c-3,0-6.4,0.1-10,0.3c-0.4-0.2-0.7-0.7-0.7-1.4c0-0.7,0.1-1.1,0.4-1.4l1.6-0.2c1.1-0.1,2-0.3,2.7-0.6c0.7-0.3,1.2-0.7,1.6-1.3
		c0.4-0.6,0.7-1.3,0.9-2.2c0.2-0.9,0.4-2.1,0.5-3.5c0.4-2.9,0.6-6,0.8-9.4c0.2-3.3,0.4-7.4,0.6-12.2c0.2-3.2,0.4-6.5,0.6-10.1
		c0.2-3.6,0.3-6.8,0.3-9.6c0-2.2-0.4-3.8-1.2-4.8c-0.8-1.1-2.1-1.7-3.9-2.1l-3.2-0.6c-0.3-0.3-0.4-0.8-0.4-1.5
		c0.1-0.7,0.3-1.1,0.8-1.2c1.4,0.1,2.8,0.2,4.1,0.2c1.3,0,2.9,0,4.6,0c1.6,0,3.2,0,4.9,0c1.6,0,3.3-0.1,5.1-0.2
		c0.2,2.8,0.8,5.4,1.8,7.9c1,2.5,2.1,5,3.3,7.5l10.2,21.5c0.2,0.4,0.5,0.9,0.8,1.7c0.4,0.7,0.8,1.5,1.2,2.3c0.4,0.8,0.8,1.6,1.3,2.4
		c0.4,0.8,0.8,1.4,1.1,2c0.7-1.4,1.5-2.8,2.2-4.2c0.7-1.5,1.6-3.3,2.7-5.5l8.7-17.9c1.5-3.1,2.9-6.1,4.3-8.9s2.4-5.8,3.3-8.9
		c1.2,0.1,2.6,0.2,4,0.2c1.4,0,2.6,0,3.7,0c3.9,0,7.2-0.1,9.8-0.3c0.5,0.2,0.8,0.6,0.9,1.3c0.1,0.7-0.1,1.1-0.6,1.4l-3.1,0.5
		c-2,0.3-3.4,0.9-4,1.9c-0.7,1-1,2.7-1,5.2c0,7,0.1,13.8,0.2,20.7c0.1,6.8,0.3,13.7,0.7,20.7c0.1,1.5,0.2,2.8,0.4,3.7
		c0.2,0.9,0.4,1.6,0.7,2.1c0.3,0.5,0.7,0.8,1.3,1c0.5,0.2,1.2,0.3,1.9,0.4L1275.1,747.4z"/>
</g>
<g id="LINE">
	<rect id="LINE_1_" x="52" y="638.7" class="st1" width="1896" height="5.2"/>
</g>
<g id="PRIBADI_RANDA__x26__PARTNERS">
	<path id="PRIBADI_RANDA__x26__PARTNERS_1_" class="st2" d="M379,569.7c-0.9,0-1.6,0-2,0.1c-0.4,0-0.8,0.2-1.1,0.4
		c-0.3,0.2-0.5,0.6-0.8,1.1c-0.2,0.5-0.5,1.2-0.7,2.1l-5.6,16.3c-0.7,2-1.2,3.5-1.4,4.7c-0.2,1.1-0.2,2-0.1,2.6
		c0.2,0.6,0.6,1,1.4,1.2c0.7,0.2,1.7,0.4,3,0.6l3.9,0.7c0.4,0.5,0.7,1.2,0.6,2.1c0,0.9-0.3,1.6-0.9,1.8c-2.2-0.2-4.4-0.3-6.8-0.3
		c-2.3,0-4.8,0-7.6-0.1c-4.3,0-8.7,0.1-13.5,0.4c-0.4-0.4-0.7-0.9-0.7-1.8c0-0.8,0.2-1.5,0.6-2.2l4.1-0.7c2-0.3,3.5-0.8,4.5-1.6
		c1-0.8,2-2.4,3-4.6c0.8-1.8,1.8-4.1,2.9-6.9c1.1-2.8,2.4-6,3.8-9.7l18.6-48.4c0.9-2.2,1.6-4.1,2.1-5.7c0.5-1.6,0.7-3,0.5-4.2
		c1.2-0.3,2.3-0.8,3.5-1.4c1.1-0.7,2.1-1.4,3-2.2c0.9-0.8,1.6-1.5,2.1-2c0.5-0.6,0.9-0.9,1-0.9c1,0,1.8,0.4,2.3,1.1
		c1.1,3.1,2.1,6.2,3.1,9.3c0.9,3.1,2,6.2,3.1,9.3l19.6,56.9c0.8,2.3,1.5,4.1,2,5.4c0.5,1.4,1.2,2.4,1.9,3.2c0.7,0.8,1.6,1.3,2.7,1.7
		c1,0.4,2.4,0.7,4.1,0.9l2,0.4c0.5,0.5,0.8,1.1,0.8,2c0,0.9-0.2,1.5-0.7,1.9c-2.8-0.2-5.6-0.3-8.3-0.3c-2.7,0-5.8-0.1-9.4-0.1
		c-2.9,0-5.8,0-8.7,0.1c-2.9,0.1-5.5,0.2-7.9,0.3c-0.5-0.4-0.9-1-1-1.9c-0.1-0.9,0.1-1.6,0.5-2l3-0.4c2.4-0.3,3.9-0.8,4.3-1.6
		c0.4-0.8,0.2-2.7-0.7-5.6l-6.4-18.5c-0.4-0.9-0.7-1.6-0.9-2.1c-0.3-0.5-0.6-0.9-1-1.1c-0.4-0.2-0.8-0.4-1.4-0.4s-1.3-0.1-2.2-0.1
		H379L379,569.7z M1700.7,579.9c0,1,0,2.7,0,5c0,2.4,0,4.8,0.1,7.3c0,2.5,0.1,4.9,0.1,7.1c0,2.2,0.1,3.7,0.2,4.5
		c-0.5,0.7-1.2,1.2-2.1,1.6c-0.9,0.3-1.7,0.4-2.5,0.3c-0.5-0.7-1.2-1.6-2-2.6c-0.8-1-1.8-2.2-3.1-3.7c-1.2-1.4-2.7-3.2-4.5-5.2
		c-1.8-2-3.9-4.4-6.3-7.2l-31.8-36.3c-4.4-5-7.8-8.8-10.2-11.6c-2.4-2.7-4.1-4.6-5.3-5.6c-0.2,0-0.3,0.5-0.3,1.6
		c0,1.1-0.1,3.5-0.1,7.1v26.5c0,2.5,0,5.2,0.1,7.9c0,2.7,0.1,5.3,0.3,7.7c0.1,2.5,0.4,4.7,0.8,6.7c0.4,2,0.8,3.5,1.4,4.5
		c0.6,1,1.5,1.7,2.7,2.2c1.1,0.5,2.6,0.9,4.3,1.2l3,0.4c0.6,0.5,0.9,1.2,0.9,2.2c0,1-0.4,1.6-1.2,1.8c-5.1-0.3-10.2-0.4-15.5-0.4
		c-2.9,0-5.4,0-7.5,0.1c-2.1,0-4.3,0.2-6.7,0.3c-0.5-0.4-0.9-1-1-1.9c-0.1-0.9,0.1-1.6,0.7-2l3-0.7c1.3-0.2,2.5-0.5,3.6-0.9
		c1.1-0.4,1.9-1.2,2.4-2.2c0.4-1.1,0.8-2.6,1-4.5c0.2-1.9,0.4-4.1,0.5-6.5c0.1-2.4,0.2-5,0.2-7.7c0-2.7,0-5.4,0-8.2v-32.2
		c0-2.6,0-4.8-0.1-6.5c0-1.7-0.2-3.2-0.5-4.3c-0.3-1.2-0.7-2.2-1.3-3.1c-0.6-0.9-1.5-1.8-2.6-2.8c-0.7-0.6-1.9-1.2-3.4-1.7
		c-1.5-0.5-2.8-0.8-3.8-1l-2-0.4c-0.5-0.5-0.7-1.2-0.6-2.2c0-1,0.4-1.6,1.2-1.8c1.3,0.2,2.7,0.3,4.2,0.3c1.5,0,3,0.1,4.5,0.1
		c1.4,0,2.8,0,4.1,0c1.4,0,2.4,0,3.3,0c3,0,6.1-0.1,9.4-0.4c0.5,1.4,1.8,3.5,3.7,6.1c1.9,2.6,4,5.4,6.3,8.2c2.3,2.9,4.6,5.6,6.8,8.1
		c2.2,2.5,3.9,4.4,5.1,5.7l13.6,14.7c1.5,1.5,3.2,3.5,5.3,5.8c2.1,2.4,4.1,4.7,6.2,6.9s3.8,4.2,5.4,5.9c1.5,1.7,2.5,2.6,2.9,2.8
		c0.2-0.2,0.3-0.5,0.3-0.9c0-0.5,0.1-1.2,0.1-2.3v-26.5c0-2.5,0-5.2-0.1-7.9c0-2.7-0.2-5.3-0.3-7.7c-0.2-2.4-0.4-4.7-0.7-6.7
		c-0.3-2-0.8-3.5-1.4-4.5c-0.6-1-1.5-1.7-2.6-2.2c-1.1-0.5-2.5-0.9-4.2-1.2l-3.1-0.4c-0.6-0.5-0.9-1.2-0.9-2.2c0-1,0.4-1.6,1.2-1.8
		c5.2,0.3,10.5,0.4,15.6,0.4c2.9,0,5.4,0,7.5-0.1c2.1,0,4.3-0.2,6.8-0.3c0.5,0.4,0.9,1,1,1.9c0.1,0.9-0.1,1.6-0.7,2l-3.1,0.7
		c-1.3,0.2-2.4,0.5-3.5,0.9c-1.1,0.4-1.9,1.2-2.3,2.2c-0.4,1.1-0.8,2.6-1.1,4.5c-0.3,1.9-0.5,4.1-0.6,6.5c-0.1,2.4-0.2,5-0.2,7.7
		c0,2.7,0,5.4,0,8.2V579.9L1700.7,579.9z M1732,532.9c0-3.6-0.1-6.4-0.3-8.4c-0.2-2-0.5-3.5-1.1-4.5c-0.5-1-1.3-1.6-2.3-2
		c-1-0.3-2.3-0.6-3.9-0.9l-2.2-0.3c-0.5-0.5-0.7-1.2-0.6-2.1c0-1,0.3-1.6,0.9-1.8c1.3,0.1,2.6,0.2,4,0.2c1.4,0,2.9,0.1,4.4,0.1
		c1.5,0.1,3,0.1,4.5,0.1c1.5,0,3.1,0,4.6,0h26c4.4,0,8.3,0,11.8-0.1c3.5,0,5.7-0.2,6.6-0.3c0.1,0.5,0.2,1.6,0.4,3.1
		c0.2,1.5,0.4,3.2,0.5,5c0.2,1.9,0.4,3.8,0.6,5.7c0.2,1.9,0.4,3.6,0.6,5.1c-0.3,0.5-0.9,0.9-2,1c-1,0.1-1.8,0-2.4-0.5
		c-1.1-4-2.2-6.9-3.5-8.8c-1.2-1.9-2.9-3.1-5.1-3.6c-1.5-0.4-3.3-0.8-5.2-0.9c-1.9-0.2-3.8-0.3-5.6-0.3h-9.1c-1.5,0-2.6,0-3.4,0.1
		c-0.8,0.1-1.4,0.4-1.8,0.9c-0.4,0.5-0.6,1.4-0.6,2.4c0,1.1-0.1,2.6-0.1,4.5v23c0,1.8,0.2,2.9,0.5,3.2c0.3,0.3,1.2,0.5,2.8,0.5h6.5
		c3,0,5.4,0,7.2-0.1c1.8-0.1,3.3-0.3,4.3-0.7c1.1-0.4,1.9-0.9,2.4-1.8c0.5-0.8,0.9-1.9,1.2-3.4l1-4.6c0.5-0.4,1.3-0.7,2.3-0.7
		s1.7,0.3,2,0.8c-0.1,1.8-0.2,3.9-0.3,6.3c-0.1,2.3-0.1,4.8-0.1,7.3c0,2.6,0,5.1,0.1,7.5s0.2,4.6,0.3,6.8c-0.4,0.4-1,0.7-2,0.7
		c-1,0-1.8-0.2-2.3-0.6l-1-5.4c-0.3-1.5-0.7-2.6-1.2-3.3c-0.5-0.8-1.3-1.4-2.4-1.8c-1.1-0.4-2.5-0.7-4.3-0.8
		c-1.8-0.1-4.2-0.1-7.2-0.1h-6.5c-1.5,0-2.5,0.2-2.8,0.5c-0.3,0.4-0.5,1.4-0.5,3.1v17.3c0,3.4,0.1,6.4,0.4,8.8
		c0.3,2.4,0.9,4.2,1.9,5.4c0.4,0.4,0.8,0.9,1.4,1.2c0.6,0.4,1.5,0.7,2.6,0.9c1.1,0.3,2.6,0.5,4.3,0.6c1.8,0.1,4.1,0.2,7,0.2
		c4.4,0.1,7.9-0.1,10.5-0.6c2.7-0.5,4.9-1.3,6.7-2.5c1.8-1.2,3.2-2.7,4.3-4.6c1.1-1.9,2.3-4.2,3.5-6.9c0.6-0.5,1.4-0.6,2.3-0.5
		c0.9,0.1,1.6,0.6,2,1.3c-0.2,1.5-0.5,3.1-0.9,5c-0.5,1.9-0.9,3.7-1.5,5.6c-0.5,1.9-1.1,3.7-1.7,5.3c-0.6,1.6-1.1,2.9-1.6,3.8
		c-1.5-0.1-3.4-0.2-5.5-0.2c-2.1,0-4.6-0.1-7.5-0.1c-2.9-0.1-6-0.1-9.4-0.1c-3.4,0-7.1,0-11.1,0H1740c-3,0-6.4,0-10.1,0.1
		c-3.8,0-7.2,0.2-10.3,0.3c-0.5-0.3-0.8-0.9-0.9-1.8c0-1,0.2-1.7,0.6-2.1l5-0.5c1.6-0.2,2.9-0.4,3.9-0.7c1-0.3,1.8-0.9,2.3-1.9
		c0.5-1,0.9-2.5,1.1-4.5c0.2-2,0.3-4.8,0.3-8.4V532.9L1732,532.9z M1826.6,553.3c0,1.1,0,2,0.1,2.6c0,0.6,0.3,1.1,0.7,1.4
		c0.4,0.3,1.1,0.5,2,0.5c0.9,0.1,2.2,0.1,3.8,0.1c6.7,0,11.6-1.6,14.7-4.8c3.1-3.2,4.7-8.1,4.7-14.6c0-2.7-0.4-5.3-1.3-7.7
		c-0.9-2.4-2.1-4.5-3.7-6.4c-1.6-1.9-3.5-3.3-5.8-4.4c-2.3-1.1-5-1.6-8-1.6c-1.8,0-3.2,0-4.1,0.1c-1,0.1-1.7,0.4-2.1,0.8
		c-0.5,0.5-0.7,1.1-0.8,2c-0.1,0.9-0.1,2.1-0.1,3.7V553.3L1826.6,553.3z M1810.8,533.7c0-3.3,0-5.9-0.1-7.8c-0.1-2-0.3-3.4-0.7-4.5
		c-0.4-1-1-1.8-1.9-2.2c-0.9-0.4-2.1-0.7-3.7-0.9l-3.5-0.4c-0.5-0.4-0.7-1.1-0.7-1.9c0-0.9,0.3-1.5,0.8-1.9
		c4.3-0.5,9.2-0.8,14.7-0.9c5.4-0.2,11-0.3,16.6-0.3c5.3,0,10.2,0.4,14.7,1.1c4.4,0.7,8.2,1.9,11.1,3.5c3.4,1.8,6.3,4.4,8.6,7.6
		c2.3,3.3,3.4,7.3,3.4,12.2c0,3.2-0.5,5.9-1.6,8.3c-1.1,2.4-2.5,4.4-4.1,6.1c-1.6,1.7-3.4,3.2-5.3,4.4c-1.9,1.2-3.7,2.1-5.3,2.7
		c-0.5,0.2-0.6,0.5-0.5,0.9c0.1,0.4,0.3,0.9,0.5,1.4c5.4,9.2,10,16.8,13.7,22.6c3.7,5.8,7.2,10,10.3,12.6c1.9,1.6,3.7,2.7,5.5,3.3
		c1.8,0.5,3.1,0.9,3.9,0.9c0.4,0.3,0.5,0.7,0.5,1.4c0,0.5-0.1,1-0.3,1.4c-0.8,0.2-1.9,0.4-3.3,0.5c-1.4,0.2-3.3,0.3-5.6,0.3
		c-3.3,0-6.2-0.3-8.8-1c-2.6-0.7-5-1.7-7.2-3.2c-2.2-1.5-4.3-3.3-6.3-5.6c-2-2.3-4-5-6.1-8.2c-1.8-2.9-3.6-6-5.5-9.5
		c-1.9-3.4-3.6-6.4-5.2-9c-1.3-2-2.4-3.3-3.5-3.8c-1-0.5-2.7-0.8-5-0.8c-2.1,0-3.3,0.1-3.7,0.4c-0.4,0.3-0.5,1.1-0.5,2.6v17.4
		c0,3.6,0.1,6.4,0.3,8.4c0.2,2,0.5,3.5,1.1,4.5c0.5,1,1.3,1.6,2.3,2c1,0.3,2.3,0.6,3.9,0.8l3,0.4c0.4,0.5,0.7,1.2,0.6,2.1
		c0,0.9-0.3,1.6-0.9,1.8c-6-0.3-12-0.4-18.1-0.4c-6,0-12.1,0.1-18.4,0.4c-0.5-0.3-0.9-0.9-1-1.8c-0.1-1,0.1-1.7,0.8-2.1l3-0.4
		c1.6-0.2,2.9-0.4,3.9-0.8c1-0.3,1.8-1,2.3-2c0.5-1,0.9-2.5,1.1-4.5c0.2-2,0.3-4.8,0.3-8.4V533.7L1810.8,533.7z M1915.2,605.2
		c-3.2,0-6-0.2-8.4-0.7c-2.5-0.5-4.6-1-6.4-1.6c-1.8-0.6-3.3-1.2-4.6-1.8c-1.3-0.6-2.2-1.2-2.9-1.6c-0.6-0.7-1.2-1.8-1.7-3.3
		c-0.5-1.4-0.9-3.1-1.3-5c-0.4-1.9-0.6-3.9-0.8-6c-0.2-2.2-0.3-4.3-0.3-6.4c0.4-0.7,1.1-1.1,2-1.2c0.9,0,1.6,0.2,2.2,0.6
		c0.6,1.7,1.6,3.8,2.8,6.2c1.2,2.5,2.8,4.8,4.7,7.1c1.9,2.3,4.2,4.2,6.7,5.8c2.6,1.6,5.6,2.4,8.9,2.4c5.2,0,9.2-1.4,12-4.1
		c2.8-2.8,4.2-6.2,4.2-10.4c0-3.9-1-7.4-3.1-10.6c-2.1-3.2-5.7-6.2-10.8-9.1l-5.9-3.3c-2.5-1.4-5-3.1-7.3-4.8
		c-2.3-1.8-4.4-3.7-6.1-5.8c-1.8-2.1-3.2-4.5-4.2-7.1c-1-2.6-1.6-5.4-1.6-8.5c0-3.4,0.6-6.5,1.9-9.6c1.3-3,3.1-5.7,5.6-8
		c2.5-2.3,5.6-4.1,9.3-5.4c3.7-1.3,8.1-2,13.1-2c3.5,0,6.7,0.3,9.6,1c2.9,0.6,5.9,1.3,9,1.9c0.4,0.7,0.7,1.8,1.1,3.2
		c0.4,1.4,0.7,3,0.9,4.7c0.3,1.7,0.5,3.5,0.6,5.3c0.1,1.8,0.2,3.5,0.2,5.2c-0.4,0.6-1,1-2,1c-0.9,0-1.7-0.2-2.4-0.6
		c-0.5-1.7-1.2-3.6-2.1-5.5c-0.9-1.9-2-3.7-3.5-5.2c-1.4-1.5-3.2-2.8-5.3-3.9c-2.1-1-4.6-1.6-7.5-1.6c-2.7,0-5,0.4-7,1.2
		c-1.9,0.8-3.5,1.9-4.8,3.2c-1.2,1.3-2.1,2.8-2.7,4.5c-0.6,1.7-0.9,3.5-0.9,5.3c0,2.9,1,5.8,3.1,8.7c2,2.9,5.3,5.5,9.9,7.9l8.4,4.5
		c2.2,1.2,4.4,2.6,6.6,4.2c2.2,1.6,4.2,3.6,6,5.8c1.8,2.2,3.2,4.7,4.3,7.5c1.1,2.8,1.7,5.9,1.7,9.3c0,3.9-0.7,7.5-2.2,10.7
		c-1.4,3.2-3.5,6-6.2,8.4c-2.7,2.4-6,4.2-9.9,5.5C1924.5,604.5,1920.1,605.2,1915.2,605.2L1915.2,605.2z M890.6,579.9c0,1,0,2.7,0,5
		c0,2.4,0,4.8,0.1,7.3c0,2.5,0.1,4.9,0.1,7.1c0,2.2,0.1,3.7,0.2,4.5c-0.5,0.7-1.2,1.2-2.1,1.6c-0.9,0.3-1.7,0.4-2.5,0.3
		c-0.5-0.7-1.2-1.6-2-2.6c-0.8-1-1.8-2.2-3.1-3.7c-1.2-1.4-2.7-3.2-4.5-5.2c-1.8-2-3.9-4.4-6.3-7.2l-31.8-36.3
		c-4.4-5-7.8-8.8-10.2-11.6c-2.4-2.7-4.1-4.6-5.3-5.6c-0.2,0-0.3,0.5-0.3,1.6c0,1.1-0.1,3.5-0.1,7.1v26.5c0,2.5,0,5.2,0.1,7.9
		c0,2.7,0.1,5.3,0.3,7.7c0.1,2.5,0.4,4.7,0.8,6.7c0.4,2,0.8,3.5,1.4,4.5c0.6,1,1.5,1.7,2.7,2.2c1.1,0.5,2.6,0.9,4.3,1.2l3,0.4
		c0.6,0.5,0.9,1.2,0.9,2.2c0,1-0.4,1.6-1.2,1.8c-5.1-0.3-10.2-0.4-15.5-0.4c-2.9,0-5.4,0-7.5,0.1c-2.1,0-4.3,0.2-6.7,0.3
		c-0.5-0.4-0.9-1-1-1.9c-0.1-0.9,0.1-1.6,0.7-2l3-0.7c1.3-0.2,2.5-0.5,3.6-0.9c1.1-0.4,1.9-1.2,2.4-2.2c0.5-1.1,0.8-2.6,1-4.5
		c0.2-1.9,0.4-4.1,0.5-6.5c0.1-2.4,0.2-5,0.2-7.7c0-2.7,0-5.4,0-8.2v-32.2c0-2.6,0-4.8-0.1-6.5c0-1.7-0.2-3.2-0.5-4.3
		c-0.3-1.2-0.7-2.2-1.3-3.1c-0.6-0.9-1.5-1.8-2.6-2.8c-0.7-0.6-1.9-1.2-3.4-1.7c-1.5-0.5-2.8-0.8-3.8-1l-2-0.4
		c-0.5-0.5-0.7-1.2-0.6-2.2c0-1,0.4-1.6,1.2-1.8c1.3,0.2,2.7,0.3,4.2,0.3c1.5,0,3,0.1,4.5,0.1c1.4,0,2.8,0,4.1,0c1.4,0,2.4,0,3.3,0
		c3,0,6.1-0.1,9.4-0.4c0.5,1.4,1.8,3.5,3.7,6.1c1.9,2.6,4,5.4,6.3,8.2c2.3,2.9,4.6,5.6,6.8,8.1c2.2,2.5,3.9,4.4,5.1,5.7l13.6,14.7
		c1.5,1.5,3.2,3.5,5.3,5.8c2.1,2.4,4.1,4.7,6.2,6.9c2,2.3,3.8,4.2,5.4,5.9c1.5,1.7,2.5,2.6,2.9,2.8c0.2-0.2,0.3-0.5,0.3-0.9
		c0-0.5,0.1-1.2,0.1-2.3v-26.5c0-2.5,0-5.2-0.1-7.9c0-2.7-0.2-5.3-0.3-7.7c-0.2-2.4-0.4-4.7-0.7-6.7c-0.3-2-0.8-3.5-1.4-4.5
		c-0.6-1-1.5-1.7-2.6-2.2c-1.1-0.5-2.5-0.9-4.2-1.2l-3.1-0.4c-0.6-0.5-0.9-1.2-0.9-2.2c0-1,0.4-1.6,1.2-1.8
		c5.3,0.3,10.5,0.4,15.6,0.4c2.9,0,5.4,0,7.5-0.1c2.1,0,4.3-0.2,6.8-0.3c0.5,0.4,0.9,1,1,1.9c0.1,0.9-0.1,1.6-0.7,2l-3.1,0.7
		c-1.3,0.2-2.4,0.5-3.5,0.9c-1.1,0.4-1.9,1.2-2.3,2.2c-0.5,1.1-0.8,2.6-1.1,4.5c-0.3,1.9-0.5,4.1-0.6,6.5c-0.1,2.4-0.2,5-0.2,7.7
		c0,2.7,0,5.4,0,8.2V579.9L890.6,579.9z M937.6,578.1c0,3.3,0.1,6.2,0.3,8.7c0.2,2.5,0.9,4.7,1.9,6.4c1,1.7,2.6,3,4.6,3.9
		c2,0.9,4.9,1.3,8.5,1.3c6.1,0,11.3-1,15.7-3.1c4.4-2,8-4.8,10.9-8.4c2.9-3.6,5-7.8,6.4-12.7c1.4-4.9,2.1-10.2,2.1-15.9
		c0-6.7-0.9-12.6-2.8-17.6c-1.9-5-4.5-9.2-7.9-12.5c-3.4-3.3-7.4-5.8-12.1-7.4c-4.7-1.6-9.9-2.4-15.6-2.4c-2.9,0-5.3,0.2-7.3,0.6
		c-2,0.4-3.2,0.8-3.7,1.3c-0.5,0.5-0.7,1.5-0.9,3c-0.1,1.5-0.2,3.9-0.2,7.1V578.1L937.6,578.1z M921.8,533.7c0-3.3,0-5.9-0.1-7.8
		c-0.1-2-0.3-3.5-0.7-4.6c-0.4-1.1-1-1.8-1.9-2.2c-0.9-0.4-2.1-0.7-3.7-0.9l-2.9-0.3c-0.5-0.4-0.7-1-0.7-1.9c0-0.9,0.3-1.5,0.8-1.9
		c4.9-0.5,10.1-0.8,15.6-0.9c5.5-0.2,11.6-0.3,18.3-0.3c6.4,0,12.1,0.3,17.1,1c5,0.7,10,1.9,15,3.6c4.1,1.5,7.8,3.6,11.2,6
		c3.4,2.5,6.3,5.5,8.8,8.9c2.5,3.4,4.4,7.3,5.8,11.6c1.4,4.3,2,9,2,14.1c0,3.8-0.5,7.6-1.4,11.3c-0.9,3.7-2.4,7.3-4.4,10.7
		c-2,3.4-4.5,6.6-7.6,9.5c-3.1,2.9-6.7,5.4-10.9,7.6c-4.9,2.4-10.2,4.2-15.8,5.1c-5.7,0.9-11.6,1.4-17.9,1.4c-2.1,0-4,0-5.8-0.1
		c-1.8-0.1-3.5-0.2-5.2-0.3c-3.3-0.3-6.2-0.4-8.7-0.4c-2.6,0-5.4,0-8.4,0.1c-2.9,0-5.9,0.2-8.9,0.3c-0.5-0.3-0.8-0.9-0.9-1.8
		c0-1,0.2-1.7,0.6-2.1l3-0.4c1.6-0.2,2.9-0.4,3.9-0.8c1-0.3,1.8-1,2.3-2c0.5-1,0.9-2.5,1.1-4.5c0.2-2,0.3-4.8,0.3-8.4V533.7
		L921.8,533.7z M1056.8,563.6c1.9,0,3.1-0.2,3.5-0.5c0.4-0.4,0.3-1.4-0.2-3l-5.7-16.3c-1.2-3.6-2-6.2-2.5-7.7
		c-0.5-1.5-0.9-2.5-1.3-3h-0.3c-0.3,0.5-0.7,1.6-1.3,3.3c-0.6,1.8-1.5,4.2-2.8,7.4l-5.7,15.9c-0.7,2-0.9,3.1-0.7,3.5
		c0.3,0.3,1.2,0.5,2.9,0.5H1056.8L1056.8,563.6z M1040.5,569.7c-0.9,0-1.6,0-2,0.1c-0.5,0-0.8,0.2-1.1,0.4c-0.3,0.2-0.5,0.6-0.8,1.1
		c-0.2,0.5-0.5,1.2-0.7,2.1l-5.6,16.3c-0.7,2-1.2,3.5-1.4,4.7c-0.2,1.1-0.2,2-0.1,2.6c0.2,0.6,0.6,1,1.4,1.2c0.7,0.2,1.7,0.4,3,0.6
		l3.9,0.7c0.4,0.5,0.7,1.2,0.6,2.1c-0.1,0.9-0.3,1.6-0.9,1.8c-2.2-0.2-4.4-0.3-6.8-0.3c-2.3,0-4.8,0-7.6-0.1
		c-4.3,0-8.7,0.1-13.5,0.4c-0.5-0.4-0.7-0.9-0.7-1.8c0-0.8,0.2-1.5,0.6-2.2l4.1-0.7c2-0.3,3.5-0.8,4.5-1.6c1-0.8,2-2.4,3-4.6
		c0.8-1.8,1.8-4.1,2.9-6.9c1.1-2.8,2.4-6,3.8-9.7l18.6-48.4c0.9-2.2,1.6-4.1,2.1-5.7c0.5-1.6,0.7-3,0.5-4.2c1.2-0.3,2.3-0.8,3.5-1.4
		c1.1-0.7,2.1-1.4,3-2.2c0.9-0.8,1.6-1.5,2.1-2c0.5-0.6,0.9-0.9,1-0.9c1,0,1.8,0.4,2.3,1.1c1.1,3.1,2.1,6.2,3.1,9.3
		c0.9,3.1,2,6.2,3.1,9.3l19.6,56.9c0.8,2.3,1.5,4.1,2,5.4c0.5,1.4,1.2,2.4,1.9,3.2c0.7,0.8,1.6,1.3,2.7,1.7c1,0.4,2.4,0.7,4.1,0.9
		l2,0.4c0.5,0.5,0.8,1.1,0.8,2c0,0.9-0.2,1.5-0.7,1.9c-2.8-0.2-5.6-0.3-8.3-0.3c-2.7,0-5.8-0.1-9.4-0.1c-2.9,0-5.8,0-8.7,0.1
		c-2.9,0.1-5.5,0.2-7.9,0.3c-0.5-0.4-0.9-1-0.9-1.9c-0.1-0.9,0.1-1.6,0.5-2l3-0.4c2.4-0.3,3.9-0.8,4.3-1.6c0.4-0.8,0.2-2.7-0.7-5.6
		l-6.4-18.5c-0.4-0.9-0.7-1.6-0.9-2.1c-0.3-0.5-0.6-0.9-1-1.1c-0.4-0.2-0.8-0.4-1.4-0.4s-1.3-0.1-2.2-0.1H1040.5L1040.5,569.7z
		 M1173.6,520.9c-2.3,0-4.3,1-6.1,2.9c-1.7,1.9-2.6,4.4-2.6,7.6c0,2.9,0.8,5.4,2.4,7.6c1.6,2.2,3.8,4.3,6.8,6.5
		c0.5,0.3,0.9,0.5,1.3,0.8c0.4,0.3,0.7,0.4,0.9,0.4c0.2,0,0.4-0.1,0.7-0.3c0.3-0.2,0.5-0.3,0.7-0.4c1.2-1.5,2.3-3.3,3.1-5.4
		c0.9-2.2,1.3-4.7,1.3-7.6c0-3.5-0.8-6.4-2.3-8.7C1178.3,522,1176.2,520.9,1173.6,520.9L1173.6,520.9z M1182.4,568.8
		c-1.6-1.7-3.3-3.3-5-4.8c-1.7-1.5-3.2-2.8-4.7-3.8c-1.4-1-2.7-1.9-3.7-2.4c-1-0.6-1.6-0.9-1.8-0.9c-0.4,0-0.8,0.2-1.4,0.5
		c-0.6,0.3-1.2,0.7-1.7,1.2c-2.4,1.6-4.3,4-5.9,7.1c-1.6,3.1-2.4,6.4-2.4,9.9c0,2.9,0.6,5.5,1.7,7.9c1.1,2.4,2.7,4.4,4.6,6.1
		c1.9,1.7,4.1,3.1,6.7,4c2.6,0.9,5.4,1.4,8.4,1.4s5.8-0.6,8.6-1.7c2.7-1.1,5.1-2.7,7.2-4.5c1-0.9,1.5-1.7,1.6-2.3
		c0-0.6-0.3-1.6-1.2-2.9c-1.6-2.6-3.4-5.2-5.2-7.7C1186.3,573.3,1184.4,570.9,1182.4,568.8L1182.4,568.8z M1174.2,516
		c3,0,5.7,0.5,8.1,1.4c2.4,0.9,4.5,2.2,6.2,3.8c1.7,1.6,3,3.4,3.9,5.6s1.4,4.4,1.4,6.7c0,2.5-0.5,4.7-1.4,6.5
		c-0.9,1.8-2,3.3-3.3,4.5c-1.3,1.2-2.7,2.2-4.1,3.1c-1.5,0.8-2.8,1.5-3.9,2.2c2.6,1.7,5,3.4,7,5.1c2,1.7,3.9,3.5,5.6,5.4
		c1.7,1.9,3.4,4,5,6.2c1.6,2.2,3.4,4.7,5.2,7.5c2.2-2.9,4.4-6.5,6.7-10.8c2.3-4.3,4.4-8.6,6.4-13c1.2-2.6,1.8-4.4,1.8-5.3
		c0-0.9-0.9-1.5-2.8-1.9l-4-0.7c-0.6-0.6-0.9-1.4-0.8-2.2c0.1-0.8,0.5-1.4,1.2-1.6h7.5c1.7,0,3.7,0,6-0.1c2.3,0,4.6-0.1,6.8-0.2
		c2.2-0.1,4.2-0.2,6.1-0.3c1.8-0.1,3.1-0.2,3.9-0.3c0.5,0.3,0.7,0.8,0.9,1.7c0.1,0.9-0.1,1.6-0.6,2.1l-6.3,1.4
		c-1.8,0.4-3.3,0.9-4.6,1.6c-1.3,0.7-2.4,1.6-3.5,2.6c-1.1,1.1-2.1,2.4-3.1,3.9c-1,1.5-2.1,3.2-3.3,5.2c-1.6,2.7-3.6,5.9-6,9.4
		c-2.4,3.6-5.1,7.5-8.1,11.9c-0.7,1.2-0.6,2.5,0.3,3.9c2.9,4.5,6,8.1,9.3,10.7c3.3,2.6,7.4,3.9,12.3,3.9c1.9,0,3.8-0.4,5.8-1.1
		c2-0.7,3.7-1.6,5.2-2.6c0.7,0.1,1.3,0.4,1.6,0.9c0.4,0.5,0.5,1.2,0.3,1.9c-1.6,1.8-3.4,3.3-5.4,4.6c-2,1.2-4,2.2-6.1,3
		c-2.1,0.8-4.1,1.3-6.1,1.7c-2,0.4-3.9,0.5-5.6,0.5c-3.2,0-6.3-0.4-9.4-1.2c-3.1-0.8-5.3-1.9-6.5-3.1c-1-1-2.1-2.4-3.3-4.1
		c-1.2-1.8-2.3-3.4-3.2-4.8c-4.5,4.6-9,8-13.5,10.1c-4.5,2.1-9.4,3.2-14.6,3.2c-4.9,0-9.1-0.7-12.5-2.2c-3.4-1.5-6.3-3.4-8.4-5.8
		c-2.2-2.4-3.8-5-4.8-7.9c-1-2.9-1.6-5.6-1.7-8.4c0.1-3.5,0.7-6.7,2-9.5c1.2-2.8,2.8-5.3,4.8-7.6c2-2.2,4.2-4.2,6.6-5.8
		c2.5-1.7,5-3.2,7.5-4.6c-0.5-0.5-1.3-1.1-2.4-2c-1-0.9-2.1-2-3.1-3.4c-1-1.4-2-3-2.8-4.9c-0.8-1.9-1.2-4-1.2-6.4
		c0-3.1,0.6-5.9,1.7-8.4c1.1-2.5,2.7-4.6,4.6-6.4c1.9-1.8,4.2-3.2,6.8-4.1C1168.7,516.5,1171.4,516,1174.2,516L1174.2,516z
		 M1296.3,533.7c0-3.1,0-5.6-0.1-7.5c-0.1-1.9-0.3-3.4-0.7-4.5c-0.4-1.1-0.9-1.9-1.7-2.3c-0.8-0.4-1.9-0.8-3.3-0.9l-4.8-0.5
		c-0.5-0.4-0.7-1.1-0.7-2c0-0.9,0.3-1.5,0.8-1.8c4.7-0.5,9.4-0.9,13.9-1c4.6-0.1,10-0.2,16.1-0.2c12.7,0,22.2,1.8,28.4,5.4
		c3.5,2.1,6.3,4.9,8.4,8.4c2.1,3.5,3.1,7.5,3.1,12c0,5.2-1.1,9.4-3.3,12.8c-2.2,3.4-4.8,6.1-7.9,8.1c-3.1,2-6.4,3.4-9.9,4.2
		c-3.5,0.8-6.6,1.2-9.3,1.2c-0.6,0-1.2,0-1.8,0c-0.5,0-1.1-0.1-1.6-0.1c-0.5-0.4-0.7-1-0.8-1.7c-0.1-0.7,0-1.2,0.4-1.7
		c3.1-0.6,5.7-1.6,7.8-3c2.1-1.4,3.9-3,5.2-5c1.4-2,2.3-4.2,2.9-6.7c0.6-2.4,0.9-5.1,0.9-7.9c0-2.7-0.4-5.3-1.3-7.8
		c-0.9-2.5-2.1-4.7-3.8-6.6c-1.7-1.9-3.7-3.4-6.1-4.6c-2.4-1.1-5.1-1.7-8.2-1.7c-1.7,0-3,0-3.9,0.1c-0.9,0.1-1.6,0.3-2,0.8
		c-0.5,0.4-0.7,1-0.8,1.7c-0.1,0.7-0.1,1.8-0.1,3.1v59.4c0,3.6,0.1,6.4,0.3,8.4c0.2,2,0.5,3.5,1.1,4.5c0.5,1,1.3,1.6,2.3,1.9
		c1,0.3,2.3,0.5,3.9,0.7l5,0.5c0.5,0.5,0.6,1.2,0.5,2.1c-0.1,0.9-0.4,1.6-0.8,1.8c-4.1-0.2-7.7-0.3-10.9-0.3c-3.2,0-6.2-0.1-9.2-0.1
		s-6,0-9,0.1c-3,0-5.9,0.2-8.6,0.3c-0.5-0.3-0.8-0.9-0.9-1.8c0-1,0.2-1.7,0.6-2.1l2.2-0.3c1.6-0.3,2.9-0.6,3.9-0.9
		c1-0.3,1.8-1,2.3-2c0.5-1,0.9-2.5,1.1-4.5c0.2-2,0.3-4.8,0.3-8.4V533.7L1296.3,533.7z M1394.4,563.6c1.9,0,3.1-0.2,3.5-0.5
		c0.4-0.4,0.3-1.4-0.2-3l-5.7-16.3c-1.2-3.6-2-6.2-2.5-7.7c-0.5-1.5-0.9-2.5-1.3-3h-0.3c-0.3,0.5-0.7,1.6-1.3,3.3
		c-0.6,1.8-1.5,4.2-2.8,7.4l-5.7,15.9c-0.7,2-1,3.1-0.7,3.5c0.3,0.3,1.2,0.5,2.9,0.5H1394.4L1394.4,563.6z M1378.1,569.7h18.1
		c0.9,0,1.7,0,2.2,0.1s1.1,0.2,1.4,0.4c0.4,0.2,0.7,0.6,1,1.1c0.3,0.5,0.6,1.2,0.9,2.1l6.4,18.5c0.9,2.9,1.2,4.8,0.8,5.6
		c-0.4,0.8-1.8,1.4-4.3,1.6l-3,0.4c-0.5,0.5-0.6,1.1-0.5,2c0.1,0.9,0.4,1.5,1,1.9c2.4-0.1,5-0.2,7.9-0.3c2.9-0.1,5.8-0.1,8.7-0.1
		c3.5,0,6.7,0,9.4,0.1c2.7,0,5.5,0.2,8.3,0.3c0.5-0.4,0.7-1,0.7-1.9c0-0.9-0.3-1.6-0.8-2l-2-0.4c-1.7-0.3-3.1-0.6-4.1-0.9
		c-1-0.4-1.9-0.9-2.7-1.7c-0.7-0.8-1.4-1.8-1.9-3.2c-0.5-1.4-1.2-3.2-2-5.4l-19.6-56.9c-1.1-3.1-2.1-6.2-3.1-9.3
		c-1-3.1-2-6.2-3.1-9.3c-0.5-0.7-1.3-1.1-2.3-1.1c-0.1,0-0.4,0.3-0.9,0.9c-0.5,0.6-1.3,1.3-2.1,2c-0.9,0.8-1.9,1.5-3,2.2
		c-1.1,0.7-2.3,1.2-3.5,1.4c0.2,1.2,0,2.6-0.5,4.2c-0.5,1.6-1.2,3.5-2.1,5.7l-18.6,48.4c-1.4,3.7-2.7,6.9-3.8,9.7
		c-1.1,2.8-2,5.1-2.9,6.9c-1,2.3-2,3.8-3,4.6c-1,0.8-2.5,1.4-4.5,1.6l-4.1,0.7c-0.5,0.6-0.7,1.4-0.6,2.2c0,0.8,0.3,1.4,0.7,1.8
		c4.7-0.3,9.2-0.4,13.5-0.4c2.8,0.1,5.3,0.1,7.6,0.1c2.4,0,4.6,0.1,6.8,0.3c0.5-0.3,0.8-0.9,0.9-1.8c0-1-0.2-1.7-0.6-2.1l-3.9-0.7
		c-1.3-0.2-2.3-0.4-3-0.6c-0.7-0.2-1.2-0.6-1.4-1.2c-0.2-0.6-0.2-1.5,0.1-2.6c0.2-1.1,0.7-2.7,1.4-4.7l5.6-16.3
		c0.3-0.9,0.5-1.6,0.7-2.1c0.2-0.5,0.5-0.9,0.8-1.1c0.3-0.2,0.6-0.4,1.1-0.4C1376.5,569.7,1377.2,569.7,1378.1,569.7L1378.1,569.7z
		 M1467,553.3c0,1.1,0,2,0.1,2.6c0,0.6,0.3,1.1,0.7,1.4c0.4,0.3,1.1,0.5,2,0.5c0.9,0.1,2.2,0.1,3.8,0.1c6.7,0,11.6-1.6,14.7-4.8
		c3.1-3.2,4.7-8.1,4.7-14.6c0-2.7-0.4-5.3-1.3-7.7c-0.9-2.4-2.1-4.5-3.7-6.4c-1.6-1.9-3.5-3.3-5.8-4.4c-2.3-1.1-5-1.6-8-1.6
		c-1.8,0-3.2,0-4.1,0.1c-1,0.1-1.7,0.4-2.1,0.8c-0.5,0.5-0.7,1.1-0.8,2s-0.1,2.1-0.1,3.7V553.3L1467,553.3z M1451.2,533.7
		c0-3.3,0-5.9-0.1-7.8c-0.1-2-0.3-3.4-0.7-4.5c-0.4-1-1-1.8-1.9-2.2c-0.9-0.4-2.1-0.7-3.7-0.9l-3.5-0.4c-0.5-0.4-0.7-1.1-0.7-1.9
		c0-0.9,0.3-1.5,0.8-1.9c4.3-0.5,9.2-0.8,14.7-0.9c5.4-0.2,11-0.3,16.6-0.3c5.3,0,10.2,0.4,14.7,1.1c4.4,0.7,8.2,1.9,11.1,3.5
		c3.5,1.8,6.3,4.4,8.6,7.6c2.3,3.3,3.4,7.3,3.4,12.2c0,3.2-0.5,5.9-1.6,8.3c-1.1,2.4-2.4,4.4-4.1,6.1c-1.6,1.7-3.4,3.2-5.3,4.4
		c-1.9,1.2-3.7,2.1-5.3,2.7c-0.5,0.2-0.6,0.5-0.5,0.9c0.1,0.4,0.3,0.9,0.5,1.4c5.4,9.2,10,16.8,13.7,22.6c3.7,5.8,7.2,10,10.3,12.6
		c1.9,1.6,3.7,2.7,5.5,3.3c1.8,0.5,3.1,0.9,3.9,0.9c0.4,0.3,0.5,0.7,0.5,1.4c0,0.5-0.1,1-0.3,1.4c-0.8,0.2-1.9,0.4-3.3,0.5
		c-1.4,0.2-3.3,0.3-5.6,0.3c-3.3,0-6.2-0.3-8.8-1c-2.6-0.7-5-1.7-7.2-3.2c-2.2-1.5-4.3-3.3-6.3-5.6c-2-2.3-4-5-6.1-8.2
		c-1.8-2.9-3.6-6-5.5-9.5c-1.9-3.4-3.6-6.4-5.2-9c-1.3-2-2.4-3.3-3.5-3.8c-1-0.5-2.7-0.8-5-0.8c-2.1,0-3.3,0.1-3.7,0.4
		c-0.4,0.3-0.6,1.1-0.6,2.6v17.4c0,3.6,0.1,6.4,0.3,8.4c0.2,2,0.5,3.5,1.1,4.5c0.5,1,1.3,1.6,2.3,2c1,0.3,2.3,0.6,3.9,0.8l3,0.4
		c0.5,0.5,0.7,1.2,0.6,2.1c0,0.9-0.3,1.6-0.9,1.8c-6-0.3-12-0.4-18.1-0.4c-6,0-12.1,0.1-18.3,0.4c-0.5-0.3-0.9-0.9-1-1.8
		c-0.1-1,0.1-1.7,0.8-2.1l3-0.4c1.6-0.2,2.9-0.4,3.9-0.8c1-0.3,1.8-1,2.3-2c0.5-1,0.9-2.5,1.1-4.5c0.2-2,0.3-4.8,0.3-8.4V533.7
		L1451.2,533.7z M1556,524.7v58.7c0,3.6-0.1,6.4-0.3,8.4c-0.2,2-0.5,3.5-1.1,4.5c-0.5,1-1.3,1.6-2.3,1.9c-1,0.3-2.3,0.5-3.9,0.5
		l-5.7,0.7c-0.4,0.4-0.7,1-0.6,2c0,1,0.3,1.6,0.9,1.9c4.4-0.2,8.2-0.3,11.6-0.3c3.3,0,6.5-0.1,9.5-0.1c3,0,6.1,0,9.2,0.1
		c3.2,0,6.8,0.2,10.7,0.3c0.5-0.3,0.8-0.9,0.9-1.8c0-1-0.2-1.7-0.6-2.1l-4.9-0.5c-1.6-0.2-2.9-0.4-3.9-0.7c-1-0.3-1.8-0.9-2.3-1.9
		c-0.5-1-0.9-2.5-1.1-4.5c-0.2-2-0.3-4.8-0.3-8.4v-58.7c0-1.4,0-2.6,0.1-3.3c0-0.8,0.2-1.4,0.4-1.8c0.2-0.4,0.6-0.7,1.1-0.7
		c0.5-0.1,1.2-0.1,2.1-0.1h7.7c3.6,0,6.6,0.2,8.8,0.5c2.3,0.4,4.1,1,5.4,2c1.4,1,2.4,2.4,3,4.1c0.6,1.7,1.2,3.9,1.6,6.5
		c0.6,0.5,1.4,0.6,2.3,0.5c0.9-0.1,1.5-0.4,1.9-0.9c-0.1-1.1-0.1-2.6-0.1-4.4c0-1.9,0.2-3.8,0.4-5.9c0.2-2.1,0.5-4.1,0.8-6.2
		c0.3-2,0.6-3.7,1-5.1c-0.3-0.5-0.9-0.7-1.8-0.7c-0.4,0-0.9,0.2-1.6,0.5c-0.8,1.5-1.9,2.5-3.3,2.9c-1.4,0.4-3.7,0.6-7.1,0.6h-55.4
		c-2.3,0-4.3,0-5.7-0.1c-1.4,0-2.6-0.2-3.5-0.4c-0.9-0.2-1.5-0.6-1.8-1.1c-0.4-0.5-0.6-1.2-0.8-2c-0.3-0.4-0.7-0.5-1.4-0.5
		c-0.7,0-1.2,0.2-1.5,0.5c-0.5,2.4-1.2,5.5-2.1,9.3c-1,3.8-2,7.6-3.2,11.2c0.3,0.7,1,1.2,2,1.4c1.1,0.2,1.9,0,2.3-0.4
		c1.3-2.7,2.5-4.9,3.7-6.6c1.2-1.7,2.6-2.9,4.1-3.8c1.6-0.9,3.4-1.4,5.5-1.7c2.1-0.3,4.7-0.4,7.9-0.4h7.6c1.7,0,2.8,0.3,3.1,0.9
		C1555.8,520.2,1556,521.9,1556,524.7L1556,524.7z M64.5,533.7c0-3.1,0-5.6-0.1-7.5c-0.1-1.9-0.3-3.4-0.7-4.5
		c-0.4-1.1-0.9-1.9-1.7-2.3c-0.8-0.4-1.9-0.8-3.3-0.9l-4.8-0.5c-0.5-0.4-0.7-1.1-0.7-2c0-0.9,0.3-1.5,0.8-1.8
		c4.7-0.5,9.4-0.9,13.9-1c4.6-0.1,9.9-0.2,16.1-0.2c12.7,0,22.2,1.8,28.4,5.4c3.5,2.1,6.3,4.9,8.4,8.4c2.1,3.5,3.1,7.5,3.1,12
		c0,5.2-1.1,9.4-3.3,12.8c-2.2,3.4-4.8,6.1-7.9,8.1c-3.1,2-6.4,3.4-9.9,4.2c-3.5,0.8-6.6,1.2-9.3,1.2c-0.6,0-1.2,0-1.8,0
		c-0.5,0-1.1-0.1-1.6-0.1c-0.5-0.4-0.7-1-0.8-1.7c-0.1-0.7,0-1.2,0.4-1.7c3.1-0.6,5.7-1.6,7.8-3c2.1-1.4,3.9-3,5.2-5
		c1.4-2,2.3-4.2,2.9-6.7c0.6-2.4,0.9-5.1,0.9-7.9c0-2.7-0.4-5.3-1.3-7.8c-0.9-2.5-2.1-4.7-3.8-6.6c-1.7-1.9-3.7-3.4-6.1-4.6
		c-2.4-1.1-5.1-1.7-8.2-1.7c-1.7,0-3,0-3.9,0.1c-0.9,0.1-1.6,0.3-2,0.8c-0.5,0.4-0.7,1-0.8,1.7c-0.1,0.7-0.1,1.8-0.1,3.1v59.4
		c0,3.6,0.1,6.4,0.3,8.4c0.2,2,0.5,3.5,1.1,4.5c0.5,1,1.3,1.6,2.3,1.9c1,0.3,2.3,0.5,3.9,0.7l5,0.5c0.4,0.5,0.6,1.2,0.5,2.1
		c-0.1,0.9-0.4,1.6-0.8,1.8c-4.1-0.2-7.7-0.3-10.9-0.3c-3.2,0-6.2-0.1-9.2-0.1s-6,0-9,0.1c-3,0-5.8,0.2-8.6,0.3
		c-0.5-0.3-0.8-0.9-0.9-1.8c0-1,0.2-1.7,0.6-2.1l2.2-0.3c1.6-0.3,2.9-0.6,3.9-0.9c1-0.3,1.8-1,2.3-2c0.5-1,0.9-2.5,1.1-4.5
		c0.2-2,0.3-4.8,0.3-8.4V533.7L64.5,533.7z M249.4,583.4c0,3.6,0.1,6.4,0.3,8.4c0.2,2,0.5,3.5,1.1,4.5c0.5,1,1.3,1.6,2.3,2
		c1,0.3,2.3,0.6,3.9,0.8l3,0.4c0.5,0.5,0.7,1.2,0.6,2.1c0,0.9-0.3,1.6-0.9,1.8c-6-0.3-12-0.4-18.1-0.4c-3,0-6.1,0-9.2,0.1
		c-3.1,0-6.2,0.2-9.2,0.3c-0.5-0.3-0.8-0.9-0.9-1.8c0-1,0.2-1.7,0.6-2.1l3-0.4c1.6-0.2,2.9-0.4,3.9-0.8c1-0.3,1.8-1,2.3-2
		c0.5-1,0.9-2.5,1.1-4.5c0.2-2,0.3-4.8,0.3-8.4v-50.6c0-3.6-0.1-6.4-0.3-8.4c-0.2-2-0.5-3.5-1.1-4.5c-0.5-1-1.3-1.6-2.3-2
		c-1-0.3-2.3-0.6-3.9-0.8l-3-0.4c-0.5-0.5-0.7-1.2-0.6-2.1c0-1,0.3-1.6,0.9-1.8c6,0.3,12.1,0.4,18.4,0.4c6.1,0,12.1-0.1,18.1-0.4
		c0.5,0.3,0.8,0.9,0.9,1.8c0,0.9-0.2,1.6-0.6,2.1l-3,0.4c-1.6,0.2-2.9,0.4-3.9,0.8c-1,0.3-1.8,1-2.3,2c-0.5,1-0.9,2.5-1.1,4.5
		c-0.2,2-0.3,4.8-0.3,8.4V583.4L249.4,583.4z M574.5,583.4c0,3.6,0.1,6.4,0.3,8.4c0.2,2,0.5,3.5,1.1,4.5c0.5,1,1.3,1.6,2.3,2
		c1,0.3,2.3,0.6,3.9,0.8l3,0.4c0.4,0.5,0.7,1.2,0.6,2.1c0,0.9-0.3,1.6-0.9,1.8c-6-0.3-12-0.4-18.1-0.4c-3,0-6.1,0-9.2,0.1
		c-3.1,0-6.2,0.2-9.2,0.3c-0.5-0.3-0.8-0.9-0.9-1.8c-0.1-1,0.2-1.7,0.6-2.1l3-0.4c1.6-0.2,2.9-0.4,3.9-0.8c1-0.3,1.8-1,2.3-2
		c0.5-1,0.9-2.5,1.1-4.5c0.2-2,0.3-4.8,0.3-8.4v-50.6c0-3.6-0.1-6.4-0.3-8.4c-0.2-2-0.5-3.5-1.1-4.5c-0.5-1-1.3-1.6-2.3-2
		c-1-0.3-2.3-0.6-3.9-0.8l-3-0.4c-0.5-0.5-0.7-1.2-0.6-2.1c0-1,0.3-1.6,0.9-1.8c6,0.3,12.1,0.4,18.4,0.4c6.1,0,12.1-0.1,18.1-0.4
		c0.5,0.3,0.8,0.9,0.9,1.8c0,0.9-0.2,1.6-0.6,2.1l-3,0.4c-1.6,0.2-2.9,0.4-3.9,0.8c-1,0.3-1.8,1-2.3,2c-0.5,1-0.9,2.5-1.1,4.5
		c-0.2,2-0.3,4.8-0.3,8.4V583.4L574.5,583.4z M742.7,569.7h18.1c0.9,0,1.7,0,2.2,0.1c0.6,0,1.1,0.2,1.4,0.4c0.4,0.2,0.7,0.6,0.9,1.1
		c0.3,0.5,0.6,1.2,1,2.1l6.4,18.5c0.9,2.9,1.2,4.8,0.8,5.6c-0.4,0.8-1.8,1.4-4.3,1.6l-3,0.4c-0.5,0.5-0.6,1.1-0.5,2
		c0.1,0.9,0.4,1.5,0.9,1.9c2.4-0.1,5-0.2,7.9-0.3c2.9-0.1,5.8-0.1,8.7-0.1c3.5,0,6.7,0,9.4,0.1c2.7,0,5.5,0.2,8.3,0.3
		c0.5-0.4,0.7-1,0.7-1.9c0-0.9-0.3-1.6-0.8-2l-2-0.4c-1.7-0.3-3.1-0.6-4.1-0.9c-1-0.4-1.9-0.9-2.7-1.7c-0.7-0.8-1.4-1.8-1.9-3.2
		c-0.5-1.4-1.2-3.2-2-5.4l-19.6-56.9c-1.1-3.1-2.1-6.2-3.1-9.3c-1-3.1-2-6.2-3.1-9.3c-0.5-0.7-1.3-1.1-2.3-1.1
		c-0.1,0-0.4,0.3-0.9,0.9c-0.5,0.6-1.3,1.3-2.1,2c-0.9,0.8-1.9,1.5-3,2.2c-1.1,0.7-2.3,1.2-3.5,1.4c0.2,1.2,0,2.6-0.5,4.2
		c-0.5,1.6-1.2,3.5-2.1,5.7L729.3,576c-1.4,3.7-2.7,6.9-3.8,9.7c-1.1,2.8-2,5.1-2.9,6.9c-1,2.3-2,3.8-3,4.6c-1,0.8-2.5,1.4-4.5,1.6
		l-2.4,0.4c-1.4-0.6-2.9-1.6-4.4-2.8c-3.2-2.6-6.6-6.8-10.3-12.6c-3.7-5.8-8.3-13.3-13.7-22.6c-0.3-0.5-0.5-0.9-0.5-1.4
		c-0.1-0.5,0.1-0.8,0.5-0.9c1.6-0.6,3.4-1.5,5.3-2.7c1.9-1.2,3.7-2.6,5.3-4.4c1.6-1.7,3-3.8,4.1-6.1c1.1-2.4,1.6-5.1,1.6-8.3
		c0-4.9-1.1-9-3.4-12.2c-2.3-3.3-5.1-5.8-8.6-7.6c-3-1.6-6.7-2.8-11.1-3.5c-4.4-0.7-9.3-1.1-14.7-1.1c-5.6,0-11.1,0.1-16.6,0.3
		c-5.4,0.2-10.3,0.5-14.7,0.9c-0.5,0.4-0.8,1-0.8,1.9c0,0.8,0.2,1.5,0.7,1.9l3.5,0.4c1.6,0.2,2.9,0.5,3.7,0.9
		c0.9,0.4,1.5,1.1,1.9,2.2c0.4,1,0.7,2.5,0.7,4.5c0.1,1.9,0.1,4.5,0.1,7.8v49.7c0,3.6-0.1,6.4-0.3,8.4c-0.2,2-0.5,3.5-1.1,4.5
		c-0.5,1-1.3,1.6-2.3,2c-1,0.3-2.3,0.6-3.9,0.8l-3,0.4c-0.6,0.5-0.9,1.2-0.8,2.1c0.1,0.9,0.5,1.6,1,1.8c6.3-0.3,12.4-0.4,18.4-0.4
		c6.1,0,12.1,0.1,18.1,0.4c0.5-0.3,0.8-0.9,0.9-1.8c0-1-0.2-1.7-0.6-2.1l-3-0.4c-1.6-0.2-2.9-0.4-3.9-0.8c-1-0.3-1.8-1-2.3-2
		c-0.5-1-0.9-2.5-1.1-4.5c-0.2-2-0.3-4.8-0.3-8.4V566c0-1.5,0.2-2.3,0.5-2.6c0.4-0.3,1.6-0.4,3.7-0.4c2.3,0,3.9,0.3,5,0.8
		c1,0.5,2.2,1.8,3.5,3.8c1.6,2.6,3.4,5.6,5.2,9c1.9,3.4,3.7,6.5,5.5,9.5c2.1,3.2,4.1,5.9,6.1,8.2c2,2.3,4.1,4.1,6.3,5.6
		c2.2,1.4,4.6,2.5,7.2,3.2c2.6,0.7,5.5,1,8.8,1c2.4,0,4.2-0.1,5.6-0.3c1.4-0.2,2.5-0.4,3.3-0.5l0.1-0.2c2.2-0.1,4.4-0.1,6.6-0.1
		c2.8,0.1,5.3,0.1,7.6,0.1c2.4,0,4.6,0.1,6.8,0.3c0.5-0.3,0.8-0.9,0.9-1.8c0-1-0.2-1.7-0.6-2.1l-3.9-0.7c-1.3-0.2-2.3-0.4-3-0.6
		c-0.7-0.2-1.2-0.6-1.4-1.2c-0.2-0.6-0.2-1.5,0.1-2.6c0.2-1.1,0.7-2.7,1.4-4.7l5.6-16.3c0.3-0.9,0.5-1.6,0.7-2.1
		c0.2-0.5,0.5-0.9,0.7-1.1c0.3-0.2,0.6-0.4,1.1-0.4C741.1,569.7,741.8,569.7,742.7,569.7L742.7,569.7z M759,563.6h-14.1
		c-1.6,0-2.6-0.2-2.9-0.5c-0.3-0.3,0-1.5,0.7-3.5l5.7-15.9c1.3-3.2,2.2-5.6,2.8-7.4c0.6-1.8,1-2.9,1.3-3.3h0.3
		c0.4,0.5,0.8,1.4,1.3,3c0.5,1.5,1.3,4.1,2.5,7.7l5.7,16.3c0.5,1.6,0.6,2.6,0.2,3C762.1,563.4,760.9,563.6,759,563.6L759,563.6z
		 M657.2,553.3V525c0-1.5,0-2.8,0.1-3.7c0.1-0.9,0.4-1.6,0.8-2c0.4-0.5,1.1-0.7,2.1-0.8c1-0.1,2.3-0.1,4.1-0.1c3,0,5.6,0.5,8,1.6
		c2.3,1.1,4.3,2.6,5.8,4.4c1.6,1.9,2.8,4,3.7,6.4c0.9,2.4,1.3,5,1.3,7.7c0,6.5-1.6,11.4-4.7,14.6c-3.1,3.2-8,4.8-14.7,4.8
		c-1.6,0-2.9,0-3.8-0.1c-0.9-0.1-1.6-0.3-2-0.5c-0.4-0.3-0.6-0.7-0.7-1.4C657.3,555.2,657.2,554.3,657.2,553.3L657.2,553.3z
		 M160.2,553.3c0,1.1,0,2,0.1,2.6c0,0.6,0.3,1.1,0.7,1.4c0.4,0.3,1.1,0.5,2,0.5c0.9,0.1,2.2,0.1,3.8,0.1c6.7,0,11.6-1.6,14.7-4.8
		c3.1-3.2,4.7-8.1,4.7-14.6c0-2.7-0.4-5.3-1.3-7.7c-0.9-2.4-2.1-4.5-3.7-6.4c-1.6-1.9-3.5-3.3-5.8-4.4c-2.3-1.1-5-1.6-8-1.6
		c-1.8,0-3.2,0-4.1,0.1c-1,0.1-1.7,0.4-2.1,0.8c-0.5,0.5-0.7,1.1-0.8,2c-0.1,0.9-0.1,2.1-0.1,3.7V553.3L160.2,553.3z M297.5,548.6
		c0,0.9,0,1.6,0.1,2.1c0.1,0.5,0.3,0.9,0.7,1.1c0.4,0.2,1,0.4,1.8,0.4c0.8,0,1.8,0.1,3.2,0.1c6.4,0,11.1-1.3,14.1-4
		c3-2.7,4.5-7.1,4.5-13.3c0-3-0.5-5.5-1.5-7.7c-1-2.1-2.3-3.9-3.9-5.2c-1.6-1.3-3.5-2.3-5.6-2.9c-2.1-0.6-4.2-0.9-6.3-0.9
		c-1.7,0-3.1,0-4,0.1c-0.9,0.1-1.7,0.3-2.2,0.7c-0.5,0.4-0.8,0.9-0.9,1.7c-0.1,0.8-0.1,1.8-0.1,3.2V548.6L297.5,548.6z M297.5,580.6
		c0,3.1,0.1,5.7,0.4,8c0.3,2.2,0.9,4,1.8,5.4c0.9,1.4,2.2,2.4,3.9,3.1c1.7,0.6,4.1,0.9,7.1,0.9c2.4,0,4.6-0.4,6.7-1.2
		c2.1-0.8,4-1.9,5.6-3.4c1.6-1.5,2.9-3.4,3.9-5.7c1-2.3,1.4-5,1.4-7.9c0-7.1-2.2-12.5-6.6-16.4c-4.4-3.9-10.4-5.8-18-5.8
		c-3,0-4.8,0.3-5.4,0.8c-0.6,0.5-0.9,1.4-0.9,2.8V580.6L297.5,580.6z M395.3,563.6c1.9,0,3.1-0.2,3.5-0.5c0.4-0.4,0.3-1.4-0.2-3
		l-5.7-16.3c-1.2-3.6-2-6.2-2.5-7.7c-0.5-1.5-0.9-2.5-1.3-3h-0.3c-0.3,0.5-0.7,1.6-1.3,3.3c-0.6,1.8-1.5,4.2-2.8,7.4l-5.7,15.9
		c-0.7,2-0.9,3.1-0.7,3.5c0.3,0.3,1.2,0.5,2.9,0.5H395.3L395.3,563.6z M467.9,578.1c0,3.3,0.1,6.2,0.3,8.7c0.2,2.5,0.9,4.7,1.9,6.4
		c1,1.7,2.6,3,4.6,3.9c2,0.9,4.9,1.3,8.5,1.3c6.1,0,11.3-1,15.7-3.1c4.4-2,8-4.8,10.9-8.4c2.9-3.6,5-7.8,6.4-12.7
		c1.4-4.9,2.1-10.2,2.1-15.9c0-6.7-0.9-12.6-2.8-17.6c-1.9-5-4.5-9.2-7.9-12.5c-3.4-3.3-7.4-5.8-12.1-7.4c-4.7-1.6-9.9-2.4-15.6-2.4
		c-2.9,0-5.3,0.2-7.3,0.6c-2,0.4-3.2,0.8-3.7,1.3c-0.4,0.5-0.7,1.5-0.9,3c-0.1,1.5-0.2,3.9-0.2,7.1V578.1L467.9,578.1z M144.5,533.7
		c0-3.3,0-5.9-0.1-7.8c-0.1-2-0.3-3.4-0.7-4.5c-0.4-1-1-1.8-1.9-2.2c-0.9-0.4-2.1-0.7-3.7-0.9l-3.5-0.4c-0.4-0.4-0.7-1.1-0.7-1.9
		c0-0.9,0.3-1.5,0.8-1.9c4.3-0.5,9.2-0.8,14.7-0.9c5.4-0.2,11-0.3,16.6-0.3c5.3,0,10.2,0.4,14.7,1.1c4.4,0.7,8.2,1.9,11.1,3.5
		c3.4,1.8,6.3,4.4,8.6,7.6c2.3,3.3,3.4,7.3,3.4,12.2c0,3.2-0.5,5.9-1.6,8.3c-1.1,2.4-2.5,4.4-4.1,6.1c-1.6,1.7-3.4,3.2-5.3,4.4
		c-1.9,1.2-3.7,2.1-5.3,2.7c-0.5,0.2-0.6,0.5-0.5,0.9c0.1,0.4,0.3,0.9,0.5,1.4c5.4,9.2,10,16.8,13.7,22.6c3.7,5.8,7.2,10,10.3,12.6
		c1.9,1.6,3.7,2.7,5.5,3.3c1.8,0.5,3.1,0.9,3.9,0.9c0.4,0.3,0.5,0.7,0.5,1.4c0,0.5-0.1,1-0.3,1.4c-0.8,0.2-1.9,0.4-3.3,0.5
		c-1.4,0.2-3.3,0.3-5.6,0.3c-3.3,0-6.2-0.3-8.8-1c-2.6-0.7-5-1.7-7.2-3.2c-2.2-1.5-4.3-3.3-6.3-5.6c-2-2.3-4-5-6.1-8.2
		c-1.8-2.9-3.6-6-5.5-9.5c-1.9-3.4-3.6-6.4-5.2-9c-1.3-2-2.4-3.3-3.5-3.8c-1-0.5-2.7-0.8-5-0.8c-2.1,0-3.3,0.1-3.7,0.4
		c-0.4,0.3-0.5,1.1-0.5,2.6v17.4c0,3.6,0.1,6.4,0.3,8.4c0.2,2,0.5,3.5,1.1,4.5c0.5,1,1.3,1.6,2.3,2c1,0.3,2.3,0.6,3.9,0.8l3,0.4
		c0.4,0.5,0.7,1.2,0.6,2.1c0,0.9-0.3,1.6-0.9,1.8c-6-0.3-12-0.4-18.1-0.4c-6,0-12.1,0.1-18.4,0.4c-0.5-0.3-0.9-0.9-1-1.8
		c-0.1-1,0.1-1.7,0.8-2.1l3-0.4c1.6-0.2,2.9-0.4,3.9-0.8c1-0.3,1.8-1,2.3-2c0.5-1,0.9-2.5,1.1-4.5c0.2-2,0.3-4.8,0.3-8.4V533.7
		L144.5,533.7z M281.7,533.7c0-3.3,0-5.9-0.1-7.8c-0.1-2-0.3-3.4-0.7-4.5c-0.4-1-1-1.8-1.9-2.2c-0.9-0.4-2.1-0.7-3.7-0.9l-3.5-0.4
		c-0.4-0.4-0.7-1.1-0.7-1.9c0-0.9,0.3-1.5,0.8-1.9c3.1-0.3,7.1-0.5,12.2-0.8c5-0.3,11.3-0.4,18.8-0.4c5.7,0,10.8,0.3,15.3,0.9
		c4.5,0.6,8.3,1.9,11.3,3.7c3.2,1.8,5.5,4.1,7.1,6.9c1.6,2.8,2.4,6.4,2.4,10.7c0,4.1-1.4,7.6-4.1,10.5c-2.7,2.9-6.5,5.2-11.3,6.7
		c-0.5,0.2-0.8,0.5-0.8,0.8c0,0.3,0.4,0.5,1.1,0.8c2.5,0.4,5.1,1.2,7.7,2.2c2.6,1,5,2.5,7.1,4.4c2.1,1.9,3.8,4.3,5.1,7.1
		c1.3,2.8,2,6.1,2,9.9c0,3.2-0.6,6.3-1.8,9.5c-1.2,3.2-3.4,6-6.5,8.6c-3.2,2.6-7.2,4.6-12,5.8c-4.8,1.2-11.1,1.8-18.9,1.8
		c-3,0-5.9-0.1-8.7-0.2c-2.8-0.1-5.5-0.2-8.2-0.2c-3,0-6.1,0-9.2,0.1c-3.1,0-6.2,0.2-9.2,0.3c-0.5-0.3-0.8-0.9-0.9-1.8
		c-0.1-1,0.2-1.7,0.6-2.1l3-0.4c1.6-0.2,2.9-0.4,3.9-0.8c1-0.3,1.8-1,2.3-2c0.5-1,0.9-2.5,1.1-4.5c0.2-2,0.3-4.8,0.3-8.4V533.7
		L281.7,533.7z M452.2,533.7c0-3.3,0-5.9-0.1-7.8c-0.1-2-0.3-3.5-0.7-4.6c-0.4-1.1-1-1.8-1.9-2.2c-0.9-0.4-2.1-0.7-3.7-0.9l-2.9-0.3
		c-0.5-0.4-0.7-1-0.7-1.9c0-0.9,0.3-1.5,0.8-1.9c4.9-0.5,10.1-0.8,15.6-0.9c5.5-0.2,11.6-0.3,18.3-0.3c6.4,0,12.1,0.3,17.1,1
		c5,0.7,10,1.9,15,3.6c4.1,1.5,7.8,3.6,11.2,6c3.4,2.5,6.3,5.5,8.8,8.9c2.5,3.4,4.4,7.3,5.8,11.6c1.4,4.3,2,9,2,14.1
		c0,3.8-0.5,7.6-1.4,11.3c-1,3.7-2.4,7.3-4.4,10.7c-2,3.4-4.5,6.6-7.6,9.5c-3.1,2.9-6.7,5.4-10.9,7.6c-4.9,2.4-10.2,4.2-15.8,5.1
		c-5.7,0.9-11.6,1.4-17.9,1.4c-2.1,0-4,0-5.8-0.1c-1.8-0.1-3.5-0.2-5.2-0.3c-3.3-0.3-6.2-0.4-8.7-0.4c-2.6,0-5.4,0-8.4,0.1
		c-2.9,0-5.9,0.2-8.9,0.3c-0.5-0.3-0.8-0.9-0.9-1.8c-0.1-1,0.2-1.7,0.6-2.1l3-0.4c1.6-0.2,2.9-0.4,3.9-0.8c1-0.3,1.8-1,2.3-2
		c0.5-1,0.9-2.5,1.1-4.5c0.2-2,0.3-4.8,0.3-8.4V533.7z"/>
</g>
<g id="LOGO">
	<path id="LOGO_1_" class="st3" d="M1070.7,325c0-17-7.4-30-22.3-39.1c14.8-9.4,22.3-22.4,22.3-39.1V146.4
		c0-25.5-20.2-45.6-45.6-45.6h-63.9c3.8,3.9,7.1,8.3,9.8,13h54.1c18.2,0,32.6,14.5,32.6,32.6v100.4c0,18.3-14.5,32-32.6,32h-32.6
		V146.4h19.5v112.9h13c8.7,0,13-4.2,13-12.5V146.4c0-8.7-4.4-13-13-13h-46.9c0.8,4.2,1.3,8.6,1.3,13c0,33.3,0,66.6,0,99.9v139h-97.7
		v-93.4h32.6c25.4,0,45.6-20.1,45.6-45.6c0-33.3,0-66.6,0-99.9c0-25.5-20.2-45.6-45.6-45.6H767.7V81.3c154.9,0,309.6,0,464.5,0v19.5
		h-49.6c11.4,11.7,18.3,27.7,18.3,45.6c0,33.3,0,66.6,0,99.9c0,36.4-28.7,65.1-65.1,65.1h-13v54.3h63.9v19.5h-83.5v-93.4h32.6
		c25.4,0,45.6-20.1,45.6-45.6c0-33.3,0-66.6,0-99.9c0-25.5-20.2-45.6-45.6-45.6h-58h-5.9c3.8,3.9,7.1,8.3,9.8,13h54.1
		c18.2,0,32.6,14.5,32.6,32.6c0,33.3,0,66.6,0,99.9c0,18.1-14.4,32.6-32.6,32.6h-9.8h-12.4h-10.3V146.4h19.5c0,37.6,0,75.3,0,112.9
		h3.2h9.8c8.6,0,13-4.3,13-13c0-33.3,0-66.6,0-99.9c0-8.7-4.4-13-13-13c-15.6,0-31.2,0-46.9,0c0.8,4.2,1.3,8.6,1.3,13v238.9h-19.5
		V325L1070.7,325z M959.9,293.2c-11.7,11.4-27.7,18.3-45.6,18.3h-13v54.3h58.6V293.2L959.9,293.2z M927.3,246.3c0,8.7-4.4,13-13,13
		h-9.8h-3.2c0-37.6,0-75.3,0-112.9h-19.5v132.5c10.9,0,21.7,0,32.6,0c18.2,0,32.6-14.5,32.6-32.6c0-33.3,0-66.6,0-99.9
		c0-18.1-14.4-32.6-32.6-32.6h-114v19.5c38,0,76,0,114,0c8.6,0,13,4.3,13,13C927.3,179.7,927.3,213,927.3,246.3L927.3,246.3z
		 M849.2,365.8h-48.9v19.5h68.4c0-86.9,0-152,0-238.9h-19.5V365.8L849.2,365.8z M723.8,450.4v-19.5h552.5v19.5H723.8L723.8,450.4z
		 M1276.2,68.3H723.8V48.7h552.5V68.3L1276.2,68.3z M1038.1,325v92.8c64.7,0,129.4,0,194.2,0v-19.5h-174.6V325
		c0-18.2-14.4-32.6-32.6-32.6h-32.6v105.9H767.7v19.5H1012V312h13C1033.7,312,1038.1,316.4,1038.1,325z"/>
</g>
</svg>
